<svg id="Flat" xmlns="http://www.w3.org/2000/svg" viewBox="0 0 512 512"><defs><style>.cls-1{fill:#263238;}.cls-2{fill:#37474f;}.cls-3{fill:#cfd8dc;}.cls-4{fill:#03a9f4;}.cls-5{fill:#fff;}</style></defs><g id="Color"><path class="cls-1" d="M472,28a6,6,0,0,0-6,6V174a6,6,0,0,0,12,0v-140A6,6,0,0,0,472,28Z"/><path class="cls-1" d="M34,33.995V174a6,6,0,0,0,12,0v-140a6,6,0,0,0-12,0Z"/><circle class="cls-2" cx="472" cy="39.995" r="34"/><path class="cls-3" d="M256,32C117.672,32,5.979,136.686,6,274.043v91.371A72.581,72.581,0,0,0,78.581,438H190.049a7.124,7.124,0,0,1,7.093,6.08c1.643,12.248-1.787,24.34-7.2,35-6.9,13.59,6.581,28.81,20.98,23.838,31.34-10.822,70.132-29.89,93.572-61.912A7.213,7.213,0,0,1,310.3,438H433.419A72.581,72.581,0,0,0,506,365.414V274.043C506.021,136.686,394.328,32,256,32Z"/><path class="cls-2" d="M94,386a36,36,0,0,1-36-36V272C56.209,164.907,150.215,82.257,256,82c106.106-.263,199.828,82.553,198,190v78a36,36,0,0,1-36,36Z"/><circle class="cls-2" cx="40" cy="39.995" r="34"/><circle class="cls-4" cx="156" cy="215.995" r="30"/><circle class="cls-4" cx="356" cy="215.995" r="30"/><path class="cls-5" d="M200.8,274a11.981,11.981,0,0,0-11.76,14.413,68.5,68.5,0,0,0,133.92,0A11.982,11.982,0,0,0,311.194,274Z"/><path class="cls-4" d="M306.28,320.475a68.456,68.456,0,0,1-100.56,0,70.224,70.224,0,0,1,100.56,0Z"/></g></svg>